<svg width="224" height="296" viewBox="0 0 224 296" fill="none" xmlns="http://www.w3.org/2000/svg">
<path d="M50.6465 297.201C51.8087 283.17 53.7263 272.371 53.7263 272.371L70.0783 266.231L79.0533 297.201H50.6465Z" fill="#3C8F7C"/>
<path d="M64.062 297.201L56.8506 254.976L126.001 264.003C126.001 264.003 136.304 279.483 143.669 297.201H64.062Z" fill="#50BFA5"/>
<path d="M57.4751 58.6351C54.6974 46.0108 51.9779 33.3052 59.2997 19.4373C65.224 8.21348 75.4658 1.75461 87.3201 0.348359C120.907 -3.63505 113.728 27.7179 160.675 34.508C175.26 36.6174 188.811 38.6425 200.991 45.8975C222.983 58.9983 231.284 80.0107 216.698 114.246C180.987 198.069 95.5397 125.229 82.5029 110.402C69.5677 95.6886 59.262 66.7617 57.4751 58.6351Z" fill="#184655"/>
<path d="M110.337 98.481C110.337 98.481 127.296 100.407 137.442 111.442C147.588 122.477 121.044 211.179 119.199 225.221C117.354 239.263 134.307 272.028 134.307 272.028C134.307 272.028 70.936 283.74 53.7181 272.371C53.7181 272.371 51.876 171.382 53.7181 161.35C55.5602 151.317 70.936 110.504 74.623 106.506C78.3101 102.508 110.337 98.481 110.337 98.481Z" fill="#F47458"/>
<path d="M101.801 64.2863C101.801 64.2863 101.935 65.0417 102.173 66.3201C103.315 72.4739 107.72 92.882 110.692 98.4924C114.286 105.274 98.3871 126.899 83.0898 124.261C78.5369 123.477 86.9425 104.391 86.5386 102.368C85.7628 98.4982 84.7169 93.219 83.6331 87.8061L81.8405 78.7468C80.2018 70.4778 78.8682 63.7139 78.8682 63.7139L101.801 64.2863Z" fill="#F7A491"/>
<path d="M102.174 66.3229C101.936 65.0416 101.802 64.2891 101.802 64.2891L78.8721 63.708C78.8721 63.708 80.2057 70.472 81.8444 78.741C82.4255 81.6464 83.0269 84.7117 83.6283 87.7479C87.1672 87.2279 90.8658 85.5078 94.5761 82.2682C98.3666 78.9582 101.225 74.7142 102.868 69.9577C102.587 68.5253 102.351 67.2759 102.174 66.3229Z" fill="#F47458"/>
<path d="M88.0089 9.78537C88.0089 9.78537 97.3587 11.0841 104.134 19.8296C110.91 28.5751 118.211 55.6163 101.383 70.3209C84.5543 85.0256 67.9233 68.3801 65.4566 50.7351C62.9898 33.0902 63.4896 9.14907 88.0089 9.78537Z" fill="#F7A491"/>
<path d="M66.6097 52.8491C69.0242 52.301 70.1943 48.3884 69.2231 44.1102C68.2518 39.8319 65.5071 36.808 63.0926 37.3562C60.6781 37.9043 59.508 41.8169 60.4792 46.0951C61.4505 50.3734 64.1951 53.3973 66.6097 52.8491Z" fill="#F7A491"/>
<path d="M43.5224 176.673C43.8914 173.401 44.333 170.057 45.8468 167.14C47.6918 163.59 50.9343 161.039 53.7671 158.209C59.0798 152.909 63.1193 146.473 65.5808 139.384C67.4693 133.922 68.4136 128.102 71.0169 122.942C72.6091 119.792 74.7766 116.977 76.5838 113.935C80.8549 106.773 83.1792 98.3065 88.9698 92.3125C89.5057 95.9596 89.2596 99.679 88.2477 103.224C87.2358 106.768 85.4813 110.057 83.1008 112.872C81.6742 114.536 80.021 116.036 78.9343 117.939C76.9615 121.396 77.1388 125.612 76.9005 129.587C76.4619 137.083 74.3788 144.391 70.799 150.991C66.9987 157.965 61.5015 164.182 59.4677 171.864C57.9452 177.623 58.3985 184.082 55.153 189.071C54.8015 189.611 54.4005 190.154 54.3134 190.794C54.2824 191.156 54.3039 191.521 54.3773 191.877L54.5952 193.266C55.3332 197.979 56.0973 203.976 52.0471 207.503C49.2404 209.946 45.6289 210.002 43.6212 206.756C41.6135 203.511 41.7733 198.702 41.9215 195.021C42.1772 188.914 42.8338 182.763 43.5224 176.673Z" fill="#3C8F7C"/>
<path d="M36.2308 172.881C37.8055 167.428 40.249 162.233 41.4606 156.686C42.649 151.308 42.6577 145.75 42.6635 140.241C42.6635 134.204 42.6635 128.168 42.6635 122.134C42.6635 118.375 42.6635 114.597 43.291 110.893C44.6276 102.917 48.7708 95.5463 49.4739 87.4894C49.779 84.0028 49.4245 80.4872 49.808 77.0123C49.9992 75.0033 50.5576 73.0464 51.4554 71.2391C51.6795 70.8139 52.0182 70.4601 52.4331 70.2176C52.8481 69.9752 53.3227 69.8539 53.8031 69.8675C54.2835 69.8811 54.7505 70.0291 55.151 70.2946C55.5516 70.5602 55.8697 70.9326 56.0693 71.3698C58.0828 75.728 59.3583 80.4436 58.5448 85.1156C58.0567 87.9194 56.8451 90.5344 55.9299 93.2306C51.8912 105.236 54.0355 118.529 50.9121 130.807C49.9678 134.515 48.5441 138.146 48.3785 141.97C47.9805 151.114 54.8113 159.467 54.1895 168.599C53.6781 176.086 48.2943 182.283 46.0338 189.437C44.7699 193.443 44.4997 197.72 43.1284 201.695C42.0766 204.783 39.6418 208.534 35.824 207.599C32.2154 206.707 33.3049 203.761 33.4676 200.945C34.0575 191.424 33.5432 182.185 36.2308 172.881Z" fill="#327F6B"/>
<path d="M27.9643 177.873C28.1241 175.037 28.6035 172.187 28.2054 169.377C27.8713 167.004 26.927 164.766 26.2529 162.465C24.9861 158.154 24.6723 153.63 24.3673 149.15C23.8094 140.999 23.2525 132.851 22.6966 124.706C21.825 112.038 20.9533 99.3381 18.5941 86.8649C17.9375 83.4044 17.1966 79.6506 18.7539 76.4894C19.0822 75.8241 19.7273 75.118 20.4362 75.3272C20.9388 75.487 21.1858 76.042 21.3688 76.5388C26.5464 90.6042 28.5018 105.75 34.2808 119.583C35.6638 122.896 37.2734 126.156 37.9911 129.674C38.8627 133.899 38.3804 138.266 38.2816 142.577C38.1247 148.76 38.7261 154.99 40.4317 160.934C41.3265 164.046 42.5236 167.085 43.0117 170.284C43.6219 174.273 43.1105 178.335 42.7212 182.353C41.9869 190.078 41.7385 197.841 41.9774 205.597C42.1168 210.156 38.27 210.037 35.719 207.236C33.9379 205.277 33.9524 203.127 33.3423 200.687C31.3288 192.705 27.479 186.56 27.9643 177.873Z" fill="#3C8F7C"/>
<path d="M52.0157 190.242C55.4209 184.776 62.1849 181.667 64.3727 175.604C64.9276 174.058 65.1426 172.408 65.8254 170.906C67.3275 167.59 70.7415 165.716 74.0973 164.191C74.2046 164.142 74.3224 164.121 74.4399 164.129C74.5575 164.137 74.6712 164.175 74.7708 164.238C74.8703 164.301 74.9525 164.388 75.0099 164.491C75.0673 164.594 75.0982 164.709 75.0997 164.827C75.1086 165.229 75.0174 165.627 74.8343 165.984C74.6512 166.342 74.3819 166.648 74.0508 166.876C71.4404 168.641 69.5225 171.256 68.6234 174.276C67.5861 177.832 68.0423 181.726 66.7493 185.198C65.6656 188.103 63.44 190.491 62.3911 193.417C61.4352 196.093 61.5195 199.016 61.0837 201.82C60.6478 204.624 59.3898 207.605 56.8126 208.793C47.4802 213.087 49.8104 193.775 52.0157 190.242Z" fill="#327F6B"/>
<path d="M13.2394 188.437C13.3847 191.081 12.9808 193.853 14.0152 196.282C14.6776 197.839 15.8659 199.1 16.8451 200.48C20.2764 205.335 21.52 212.213 26.7934 214.944C27.1261 215.155 27.5196 215.25 27.9121 215.214C28.4525 215.112 28.8069 214.592 29.0248 214.087C30.3178 211.074 28.868 207.694 28.0079 204.519C27.8568 203.964 27.7319 203.357 28.0079 202.839C28.2985 202.279 28.958 202.038 29.4113 201.596C30.312 200.724 30.2277 199.272 30.0476 198.025C29.6002 194.914 28.9725 191.832 28.1677 188.794C27.7116 187.071 27.1828 185.334 26.192 183.855C25.0996 182.225 23.5103 181.011 22.0256 179.732C15.431 174.038 10.4601 166.7 7.61729 158.464C7.00714 156.689 6.45512 154.815 5.20577 153.423C3.95642 152.031 1.71921 151.32 0.170595 152.397C-0.918959 153.165 3.54673 160.35 4.06681 161.213C5.55732 163.674 5.57768 165.818 6.41737 168.552C8.46863 175.258 12.8443 181.258 13.2394 188.437Z" fill="#3C8F7C"/>
<path d="M18.4335 191.497C17.4602 188.975 16.4752 186.418 16.1556 183.733C15.7982 180.75 16.2718 177.696 15.7604 174.726C15.1067 170.917 12.884 167.567 11.7858 163.863C10.9926 161.187 10.7979 158.377 10.333 155.626C8.96747 147.764 5.2717 140.079 6.33219 132.17C6.56463 130.447 7.34039 128.442 9.04881 128.149C10.5945 127.884 12.0008 129.296 12.4017 130.816C12.8027 132.336 12.5034 133.937 12.4017 135.505C12.1059 139.919 13.3302 144.3 15.8709 147.921C18.2998 151.358 21.8242 153.944 24.0062 157.541C26.685 161.954 27.0511 167.338 28.4196 172.318C31.1391 182.223 37.9612 190.861 39.2047 201.056C39.7016 205.124 38.7486 210.045 35.0034 211.667C24.1573 216.362 20.8886 197.84 18.4335 191.497Z" fill="#327F6B"/>
<path d="M37.3663 204.063H62.2197C62.6175 204.064 63.0099 204.155 63.3675 204.329C63.7251 204.503 64.0388 204.756 64.285 205.068C64.5311 205.381 64.7035 205.745 64.7891 206.133C64.8748 206.522 64.8715 206.924 64.7795 207.311L55.7202 245.515C55.5881 246.095 55.2627 246.612 54.7974 246.982C54.3321 247.351 53.7547 247.552 53.1604 247.549H23.3067C22.7124 247.552 22.1351 247.351 21.6698 246.982C21.2045 246.612 20.879 246.095 20.747 245.515L11.6848 207.311C11.5927 206.924 11.5895 206.521 11.6753 206.132C11.7611 205.744 11.9337 205.38 12.1802 205.067C12.4267 204.755 12.7407 204.502 13.0987 204.328C13.4567 204.154 13.8494 204.064 14.2474 204.063H37.3663Z" fill="#13375B"/>
<path d="M85.1582 9.37869C85.1582 9.37869 99.5984 35.095 109.927 36.2834C120.256 37.4717 121.616 51.1362 121.616 51.1362C121.616 51.1362 117.92 19.6495 107.696 13.5771C97.4716 7.50466 85.1582 9.37869 85.1582 9.37869Z" fill="#184655"/>
<path d="M106.551 42.4108C105.712 46.9782 107.4 51.165 110.329 51.7636C113.257 52.3621 116.302 49.1486 117.145 44.5812C117.987 40.0138 116.294 35.827 113.368 35.2256C110.442 34.6241 107.391 37.8434 106.551 42.4108Z" fill="#F7A491"/>
<path d="M157.643 196.628L131.465 198.903L134.08 214.497C110.836 220.308 77.9085 222.716 77.9085 222.716C77.9085 222.716 74.8171 222.986 70.8308 223.027C67.1583 223.065 61.9836 223.111 59.9585 223.123C57.1117 223.092 54.2829 222.667 51.553 221.859C49.2286 221.226 45.2481 220.154 43.4379 220.525C42.299 220.761 39.1989 221.281 37.5427 221.557C35.8866 221.833 33.9341 222.092 33.077 222.341C32.554 222.495 31.3337 222.37 30.4621 222.248C30.1777 222.211 29.8885 222.259 29.632 222.388C29.3754 222.516 29.1633 222.719 29.0229 222.969C28.8824 223.219 28.8202 223.506 28.8443 223.791C28.8683 224.077 28.9774 224.35 29.1575 224.573C29.9449 225.517 31.6853 225.81 32.7661 225.988C35.8198 226.487 40.6458 225.497 40.5499 225.956C40.454 226.415 33.2862 230.718 32.5105 231.264C31.7347 231.81 23.4308 236.854 22.1466 238.365C20.8624 239.876 21.5888 240.928 22.7277 240.835C23.7098 240.753 35.6803 234.632 35.6803 234.632C35.6803 234.632 37.2086 233.853 36.9849 234.745C36.7612 235.637 25.9034 241.215 24.442 242.348C22.9805 243.482 22.5331 244.931 24.2299 245.344C26.2957 245.847 37.5166 239.176 37.5166 239.176C37.5166 239.176 38.9374 238.365 39.0507 239.065C39.164 239.765 29.8461 244.356 29.2098 245.184C28.5735 246.012 28.7711 247.395 30.3982 247.453C32.3129 247.52 42.2787 241.48 42.2787 241.48C42.2787 241.48 43.1677 241.236 43.0428 241.747C42.9179 242.258 35.2532 246.744 34.8232 247.872C34.767 247.988 34.7349 248.114 34.729 248.242C34.7231 248.371 34.7435 248.499 34.7889 248.62C34.8343 248.74 34.9038 248.85 34.9931 248.943C35.0825 249.036 35.1897 249.109 35.3084 249.159C36.9471 250.275 43.7953 244.885 47.6654 243.392C51.5355 241.898 55.1732 238.4 59.9788 237.127C62.8843 236.357 67.8236 236.337 72.2806 236.546C75.2965 236.799 78.6029 237.066 82.1098 237.328C113.994 239.713 162.539 241.817 162.478 231.226C162.467 225.851 158.875 208.061 157.643 196.628Z" fill="#F7A491"/>
<path d="M134.334 108.235C134.334 108.235 142.469 112.087 149.593 128.718C156.378 144.524 161.712 200.484 161.712 200.484L127.23 203.482L117.779 182.138C108.028 160.124 110.547 134.489 124.752 115.057C128.538 109.885 132.03 106.744 134.334 108.235Z" fill="#B75742"/>
<path d="M77.3457 57.6123L94.9848 55.5959C94.9848 55.5959 94.6129 62.5168 86.9541 63.217C79.4289 63.9056 77.3457 57.6123 77.3457 57.6123Z" fill="white"/>
</svg>
