<svg width="477" height="381" viewBox="0 0 477 381" fill="none" xmlns="http://www.w3.org/2000/svg">
<g clip-path="url(#clip0_523_2953)">
<path d="M77.71 323.35C19.45 263.82 -8.66 143.95 73.33 97.7099C155.32 51.4699 343.14 12.7899 435.33 26.2799C527.52 39.7699 433.33 148.57 444.33 251C455.33 353.43 136 382.87 77.71 323.35Z" fill="#FFE8D4"/>
<path d="M119.48 369.11C83.69 347.04 51.37 308.69 36.48 267.95C21.59 227.21 24.11 184.19 57.84 152.63C91.57 121.07 151.78 84.9501 215 55.9501C278.22 26.9501 344.61 4.88006 391 0.86006C402.58 -0.13994 411.66 0.96006 418.8 3.81006C425.509 6.4192 431.174 11.163 434.92 17.3101C442.52 29.4501 444.42 47.4401 444.56 68.8201C444.61 77.8201 444.36 87.4601 444.09 97.4701C444.04 99.3001 443.99 101.15 443.94 103.01C443.63 115.01 443.39 127.51 443.71 140.2C444.35 165.56 447.26 191.64 456.48 215.85C465.57 239.72 453.71 263.96 429.48 286.31C405.25 308.66 368.61 328.95 328.6 344.95C288.59 360.95 245.22 372.45 207.37 377.25C188.44 379.65 170.91 380.36 155.88 379.1C140.85 377.84 128.36 374.58 119.48 369.11Z" stroke="#262626" stroke-opacity="0.6"/>
<path d="M348.15 337.54L364.63 182.08H425.63L442.11 337.54H450.2L433.27 178.05C433.16 177.119 432.69 176.268 431.96 175.68C431.191 175.058 430.229 174.725 429.24 174.74H361C360.014 174.726 359.055 175.059 358.29 175.68C357.564 176.269 357.1 177.121 357 178.05L340 337.54H348.15Z" fill="#B7D3D6"/>
<path d="M442.91 304.38H347.23V311.72H442.91V304.38Z" fill="#B7D3D6"/>
<path d="M435.67 234.18H354.48V241.52H435.67V234.18Z" fill="#B7D3D6"/>
<path d="M426.24 261.23C426.643 261.572 426.944 262.018 427.11 262.52C427.25 263.014 427.25 263.536 427.11 264.03C426.822 265.035 426.321 265.966 425.64 266.76C423.113 270.026 420.008 272.802 416.48 274.95C416.197 270.654 417.572 266.413 420.32 263.1C420.996 262.197 421.881 261.473 422.9 260.99C423.426 260.751 424.004 260.648 424.58 260.69C425.171 260.721 425.744 260.907 426.24 261.23Z" fill="#94A13A"/>
<path d="M408.34 276.47C411.085 277.755 413.953 278.76 416.9 279.47C415.777 276.819 414.17 274.401 412.16 272.34C411.22 271.258 410.003 270.453 408.64 270.01C408.003 269.762 407.304 269.716 406.64 269.88C405.979 270.044 405.394 270.429 404.98 270.97C404.586 271.483 404.401 272.126 404.46 272.77C404.53 273.42 404.836 274.021 405.32 274.46C406.171 275.339 407.201 276.024 408.34 276.47Z" fill="#94A13A"/>
<path d="M417.15 288.49C417.1 288.488 417.051 288.475 417.006 288.452C416.962 288.43 416.922 288.399 416.89 288.36C416.855 288.327 416.828 288.286 416.811 288.241C416.794 288.196 416.787 288.148 416.79 288.1C417.817 276.007 414.53 263.941 407.51 254.04C407.491 253.998 407.481 253.952 407.481 253.905C407.481 253.858 407.491 253.812 407.51 253.77C407.521 253.723 407.542 253.68 407.571 253.642C407.601 253.604 407.638 253.573 407.68 253.55C407.767 253.496 407.869 253.475 407.97 253.49C408.069 253.508 408.158 253.561 408.22 253.64C415.334 263.663 418.668 275.883 417.63 288.13C417.644 288.179 417.644 288.231 417.63 288.28C417.607 288.325 417.576 288.365 417.54 288.4C417.499 288.433 417.451 288.457 417.4 288.47C417.362 288.49 417.32 288.502 417.277 288.506C417.234 288.509 417.191 288.504 417.15 288.49Z" fill="#5E1E28"/>
<path d="M432.91 290.47H400.73C399.995 290.488 399.281 290.227 398.73 289.74C398.492 289.507 398.305 289.229 398.179 288.921C398.054 288.613 397.993 288.282 398 287.95C397.996 287.605 398.067 287.264 398.21 286.95C398.355 286.64 398.559 286.362 398.81 286.13C399.072 285.894 399.378 285.71 399.71 285.59C400.045 285.462 400.401 285.397 400.76 285.4H432.94C433.282 285.403 433.621 285.468 433.94 285.59C434.274 285.711 434.58 285.898 434.84 286.14C435.093 286.366 435.298 286.642 435.44 286.95C435.583 287.264 435.654 287.605 435.65 287.95C435.647 288.285 435.573 288.616 435.433 288.921C435.294 289.226 435.092 289.498 434.84 289.72C434.312 290.201 433.624 290.469 432.91 290.47Z" fill="#6B222D"/>
<path d="M432 289.74L427.26 304.6H406.41L402.41 292.13L401.65 289.74H432Z" fill="#5E1E28"/>
<path d="M427.23 292.13L423.23 304.6H406.41L402.41 292.13H427.23Z" fill="#6B222D"/>
<path d="M403.39 246.7C403.709 246.076 404.241 245.586 404.89 245.32C405.564 245.048 406.308 245.002 407.01 245.19C407.695 245.371 408.294 245.789 408.7 246.37C409.086 246.923 409.24 247.605 409.13 248.27C409.836 248.025 410.604 248.025 411.31 248.27C411.989 248.512 412.555 248.996 412.9 249.63C413.066 249.933 413.168 250.266 413.201 250.61C413.234 250.954 413.196 251.301 413.09 251.63C412.868 252.305 412.4 252.873 411.78 253.22C412.265 253.797 412.531 254.526 412.531 255.28C412.531 256.034 412.265 256.763 411.78 257.34C411.276 257.87 410.612 258.221 409.89 258.34C409.147 258.488 408.375 258.394 407.69 258.07C407.118 258.744 406.405 259.284 405.6 259.65C404.698 259.97 403.712 259.97 402.81 259.65C402.38 259.488 402 259.216 401.71 258.86C401.432 258.519 401.255 258.107 401.2 257.67C400.382 257.645 399.597 257.346 398.97 256.82C398.363 256.318 397.972 255.602 397.88 254.82C397.787 254.061 397.988 253.296 398.44 252.68C398.936 252.028 399.643 251.568 400.44 251.38C399.08 250.54 398.31 248.8 399.18 247.54C399.651 246.919 400.328 246.486 401.09 246.32C401.878 246.181 402.689 246.315 403.39 246.7Z" fill="#F85757"/>
<path d="M409.34 253.18C409.347 253.647 409.256 254.111 409.074 254.542C408.891 254.972 408.621 255.36 408.28 255.68C407.558 256.366 406.606 256.758 405.61 256.78C404.61 256.825 403.628 256.501 402.85 255.87C402.483 255.577 402.18 255.212 401.96 254.798C401.74 254.383 401.607 253.928 401.57 253.46C401.56 253.367 401.56 253.273 401.57 253.18C401.575 252.705 401.679 252.237 401.875 251.805C402.071 251.372 402.356 250.986 402.71 250.67C403.477 250.011 404.459 249.655 405.47 249.67C406.205 249.669 406.927 249.866 407.56 250.24C408.098 250.549 408.549 250.989 408.87 251.52C409.173 252.021 409.335 252.594 409.34 253.18Z" fill="#FF8B48"/>
<path d="M407.56 250.48C407.555 250.955 407.451 251.423 407.255 251.855C407.059 252.287 406.774 252.674 406.42 252.99C405.764 253.57 404.942 253.927 404.071 254.012C403.2 254.096 402.325 253.903 401.57 253.46C401.56 253.367 401.56 253.273 401.57 253.18C401.575 252.705 401.679 252.237 401.875 251.805C402.071 251.372 402.356 250.986 402.71 250.67C403.477 250.011 404.459 249.655 405.47 249.67C406.205 249.669 406.927 249.866 407.56 250.24C407.556 250.32 407.556 250.4 407.56 250.48Z" fill="#FFB948"/>
<path d="M391.93 289.74L387.2 304.6H366.39L362.39 292.13L361.63 289.74H391.93Z" fill="#5E1E28"/>
<path d="M386.9 292.13L382.9 304.6H366.39L362.39 292.13H386.9Z" fill="#6B222D"/>
<path d="M391.49 286.95H362.13C361.411 285.767 361.063 284.395 361.13 283.012C361.198 281.629 361.679 280.297 362.51 279.19C363.99 277.566 365.81 276.289 367.84 275.45C369.665 274.664 371.377 273.639 372.93 272.4C373.093 272.264 373.247 272.117 373.39 271.96C374.9 270.41 375.71 268.12 374.76 266.25H378.89C377.94 268.12 378.76 270.41 380.25 271.96C381.895 273.426 383.774 274.606 385.81 275.45C387.841 276.282 389.66 277.56 391.13 279.19C391.957 280.307 392.437 281.642 392.51 283.03C392.564 284.409 392.209 285.772 391.49 286.95Z" fill="#8A5D3B"/>
<path d="M383.7 286.95H362.13C361.411 285.767 361.063 284.395 361.13 283.012C361.198 281.628 361.679 280.297 362.51 279.19C363.99 277.566 365.81 276.289 367.84 275.45C369.665 274.664 371.377 273.639 372.93 272.4C374.483 273.639 376.195 274.664 378.02 275.45C380.056 276.284 381.88 277.562 383.36 279.19C384.184 280.307 384.657 281.643 384.72 283.03C384.778 284.409 384.423 285.774 383.7 286.95Z" fill="#A46F46"/>
<path d="M390.21 264.72C390.263 265.154 390.229 265.595 390.108 266.016C389.988 266.437 389.785 266.829 389.51 267.17C388.92 267.895 388.09 268.384 387.17 268.55C386.62 268.629 386.06 268.542 385.56 268.3C385.372 268.195 385.2 268.064 385.05 267.91C384.822 267.679 384.684 267.374 384.66 267.05C384.571 267.68 384.254 268.257 383.77 268.67C383.264 269.109 382.629 269.372 381.96 269.42C381.261 269.474 380.562 269.31 379.96 268.95C379.387 268.607 378.95 268.077 378.72 267.45C378.38 268.005 377.91 268.468 377.35 268.8C376.774 269.147 376.129 269.362 375.46 269.43C374.749 269.53 374.025 269.49 373.33 269.31C372.647 269.117 372.015 268.776 371.48 268.31C370.326 268.869 369.078 269.209 367.8 269.31C367.198 269.379 366.588 269.303 366.02 269.09C365.463 268.883 364.968 268.539 364.58 268.09C364.402 267.872 364.269 267.62 364.19 267.35C364.118 267.081 364.104 266.8 364.151 266.525C364.198 266.251 364.303 265.99 364.46 265.76C364.618 265.522 364.822 265.318 365.06 265.16C364.273 265.209 363.494 264.979 362.86 264.51C362.56 264.293 362.305 264.019 362.111 263.703C361.917 263.387 361.788 263.036 361.73 262.67C361.683 262.317 361.708 261.958 361.802 261.614C361.897 261.271 362.059 260.95 362.28 260.67C362.762 260.058 363.453 259.645 364.22 259.51C363.979 259.378 363.768 259.197 363.6 258.98C363.435 258.771 363.319 258.529 363.26 258.27C363.169 257.914 363.211 257.537 363.38 257.21C363.81 256.35 365.38 255.21 366.38 255.44C366.572 254.743 367.013 254.142 367.62 253.75C368.255 253.33 369.011 253.133 369.77 253.19C370.525 253.268 371.257 253.499 371.92 253.87C372.568 254.22 373.134 254.704 373.58 255.29C373.834 254.303 374.407 253.428 375.21 252.8C376.044 252.132 377.056 251.722 378.12 251.62C379.186 251.566 380.244 251.819 381.17 252.35C382.056 252.854 382.757 253.629 383.17 254.56C383.861 254.24 384.628 254.123 385.383 254.224C386.138 254.325 386.848 254.639 387.43 255.13C387.99 255.587 388.383 256.216 388.55 256.92C388.698 257.594 388.617 258.297 388.32 258.92C389.073 258.91 389.811 259.126 390.44 259.54C391.042 259.933 391.499 260.513 391.74 261.19C391.943 261.85 391.897 262.562 391.61 263.19C391.328 263.843 390.835 264.381 390.21 264.72Z" fill="#5B9983"/>
<path d="M385 267.95C384.779 267.715 384.645 267.412 384.62 267.09C384.527 267.719 384.211 268.294 383.73 268.71C383.224 269.149 382.589 269.412 381.92 269.46C381.221 269.511 380.523 269.347 379.92 268.99C379.35 268.646 378.916 268.116 378.69 267.49C378.35 268.045 377.88 268.508 377.32 268.84C376.743 269.184 376.098 269.399 375.43 269.47C374.719 269.57 373.995 269.53 373.3 269.35C372.617 269.157 371.985 268.816 371.45 268.35C370.295 268.907 369.048 269.246 367.77 269.35C367.168 269.419 366.558 269.343 365.99 269.13C365.432 268.926 364.936 268.581 364.55 268.13C364.372 267.912 364.239 267.66 364.16 267.39C364.103 267.12 364.103 266.84 364.16 266.57C364.205 266.294 364.311 266.031 364.47 265.8C364.628 265.562 364.832 265.358 365.07 265.2C364.283 265.251 363.503 265.02 362.87 264.55C362.568 264.335 362.312 264.061 362.118 263.745C361.924 263.429 361.796 263.077 361.74 262.71C361.693 262.357 361.718 261.998 361.812 261.654C361.906 261.311 362.069 260.989 362.29 260.71C362.77 260.1 363.456 259.687 364.22 259.55C363.984 259.415 363.777 259.235 363.61 259.02C363.447 258.809 363.328 258.568 363.26 258.31C363.965 258.425 364.643 258.669 365.26 259.03C365.86 259.378 366.386 259.84 366.81 260.39C367.08 259.411 367.655 258.542 368.45 257.91C369.286 257.243 370.296 256.83 371.36 256.72C372.41 256.676 373.451 256.933 374.36 257.46C375.244 257.961 375.945 258.732 376.36 259.66C377.059 259.358 377.826 259.251 378.58 259.35C379.317 259.458 380.01 259.769 380.58 260.25C381.13 260.71 381.519 261.333 381.69 262.03C381.844 262.701 381.773 263.403 381.49 264.03C382.241 264.029 382.977 264.244 383.61 264.65C384.209 265.042 384.665 265.617 384.91 266.29C385.116 266.82 385.147 267.401 385 267.95Z" fill="#6AB298"/>
<path d="M392.88 290.47H360.67C359.935 290.487 359.221 290.226 358.67 289.74C358.422 289.514 358.224 289.239 358.086 288.933C357.948 288.627 357.875 288.296 357.87 287.96C357.862 287.616 357.931 287.275 358.07 286.96C358.218 286.652 358.422 286.374 358.67 286.14C358.932 285.904 359.238 285.72 359.57 285.6C359.909 285.472 360.268 285.407 360.63 285.41H392.84C393.202 285.409 393.561 285.473 393.9 285.6C394.229 285.724 394.532 285.911 394.79 286.15C395.044 286.372 395.247 286.646 395.387 286.953C395.527 287.26 395.599 287.593 395.6 287.93C395.597 288.265 395.523 288.596 395.383 288.901C395.244 289.206 395.042 289.478 394.79 289.7C394.272 290.186 393.59 290.46 392.88 290.47Z" fill="#6B222D"/>
<path d="M379.05 215.18C377.805 214.561 376.817 213.524 376.26 212.25C376.012 211.635 375.939 210.964 376.05 210.31C376.163 209.645 376.453 209.023 376.89 208.51C377.371 207.991 378.005 207.641 378.7 207.51C379.41 207.369 380.147 207.449 380.81 207.74C379.933 206.979 379.274 205.998 378.901 204.897C378.528 203.797 378.456 202.618 378.69 201.48C378.916 200.386 379.451 199.38 380.23 198.58C381.04 197.74 382.052 197.124 383.17 196.79C384.316 196.449 385.527 196.39 386.7 196.62C387.852 196.846 388.928 197.359 389.83 198.11C389.761 197.316 389.997 196.526 390.49 195.9C391.01 195.248 391.736 194.793 392.55 194.61C393.406 194.467 394.285 194.6 395.06 194.99C395.802 195.361 396.387 195.985 396.71 196.75C397.422 196.051 398.322 195.575 399.3 195.38C400.3 195.165 401.341 195.242 402.3 195.6C403.139 195.975 403.839 196.605 404.3 197.4C404.739 198.169 404.898 199.067 404.75 199.94C405.646 199.672 406.597 199.638 407.51 199.84C408.405 200.041 409.232 200.472 409.91 201.09C410.521 201.688 410.932 202.46 411.09 203.3C411.24 204.123 411.128 204.973 410.77 205.73C411.295 205.509 411.876 205.46 412.43 205.59C412.973 205.72 413.456 206.03 413.8 206.47C414.08 206.896 414.236 207.391 414.25 207.9C414.264 208.413 414.132 208.919 413.87 209.36C413.282 210.25 412.443 210.946 411.46 211.36C412.09 211.472 412.664 211.793 413.09 212.27C413.496 212.718 413.714 213.305 413.7 213.91C413.64 214.506 413.458 215.084 413.166 215.607C412.874 216.13 412.477 216.587 412 216.95H380C379.59 216.45 379.68 215.53 379.05 215.18Z" fill="#576127"/>
<path d="M383.79 217.24C382.871 216.783 382.144 216.014 381.74 215.07C381.55 214.619 381.491 214.123 381.57 213.64C381.657 213.151 381.875 212.695 382.2 212.32C382.551 211.935 383.018 211.675 383.53 211.58C384.054 211.472 384.599 211.528 385.09 211.74C384.443 211.178 383.956 210.454 383.68 209.642C383.404 208.831 383.349 207.96 383.52 207.12C383.692 206.314 384.087 205.572 384.66 204.98C385.259 204.364 386.006 203.913 386.83 203.67C387.673 203.417 388.566 203.372 389.43 203.54C390.279 203.709 391.073 204.087 391.74 204.64C391.682 204.058 391.855 203.477 392.22 203.02C392.604 202.54 393.14 202.205 393.74 202.07C394.371 201.959 395.02 202.058 395.59 202.35C396.138 202.62 396.571 203.078 396.81 203.64C397.334 203.126 397.999 202.778 398.72 202.64C399.451 202.488 400.209 202.544 400.91 202.8C401.537 203.072 402.059 203.538 402.4 204.13C402.731 204.701 402.848 205.371 402.73 206.02C403.38 205.828 404.068 205.804 404.73 205.95C405.391 206.094 406.002 206.412 406.5 206.87C406.949 207.303 407.252 207.865 407.366 208.478C407.481 209.091 407.402 209.724 407.14 210.29C407.527 210.133 407.954 210.102 408.36 210.2C408.758 210.296 409.111 210.525 409.36 210.85C409.571 211.164 409.689 211.532 409.7 211.91C409.703 212.287 409.603 212.657 409.41 212.98C408.982 213.635 408.364 214.144 407.64 214.44C408.106 214.523 408.532 214.759 408.85 215.11C409.146 215.447 409.306 215.882 409.3 216.33C409.257 216.771 409.124 217.198 408.909 217.585C408.694 217.972 408.401 218.311 408.05 218.58H384.49C384.2 218.17 384.26 217.49 383.79 217.24Z" fill="#5F6A2B"/>
<path d="M393 202.95C393.197 202.564 393.528 202.262 393.93 202.1C394.349 201.929 394.813 201.901 395.25 202.02C395.675 202.127 396.047 202.383 396.3 202.74C396.421 202.909 396.508 203.1 396.554 203.303C396.6 203.505 396.606 203.715 396.57 203.92C397.011 203.795 397.482 203.816 397.91 203.98C398.336 204.132 398.691 204.435 398.91 204.83C399.009 205.016 399.07 205.219 399.089 205.429C399.108 205.638 399.084 205.85 399.02 206.05C398.887 206.471 398.601 206.828 398.22 207.05C398.522 207.409 398.688 207.862 398.69 208.33C398.69 208.802 398.524 209.259 398.22 209.62C397.91 209.964 397.495 210.196 397.04 210.28C396.576 210.362 396.097 210.299 395.67 210.1C395.313 210.522 394.87 210.863 394.37 211.1C393.807 211.3 393.193 211.3 392.63 211.1C392.361 211.001 392.123 210.832 391.94 210.61C391.763 210.396 391.652 210.136 391.62 209.86C391.105 209.85 390.608 209.666 390.21 209.34C389.83 209.033 389.58 208.594 389.51 208.11C389.479 207.874 389.495 207.634 389.556 207.404C389.618 207.174 389.725 206.959 389.87 206.77C390.169 206.36 390.606 206.073 391.1 205.96C390.853 205.866 390.626 205.727 390.43 205.55C390.245 205.373 390.102 205.158 390.01 204.92C389.925 204.687 389.894 204.437 389.92 204.19C389.949 203.944 390.034 203.708 390.17 203.5C390.305 203.28 390.49 203.095 390.71 202.96C390.934 202.813 391.186 202.714 391.45 202.67C391.714 202.62 391.986 202.62 392.25 202.67C392.509 202.728 392.754 202.837 392.97 202.99L393 202.95Z" fill="#F85757"/>
<path d="M396.7 206.95C396.701 207.391 396.557 207.82 396.29 208.17C396.021 208.544 395.644 208.827 395.21 208.98C394.763 209.148 394.28 209.193 393.81 209.11C393.353 209.026 392.927 208.819 392.58 208.51C392.247 208.21 392.013 207.816 391.91 207.38C391.82 206.953 391.869 206.508 392.05 206.11C392.237 205.693 392.548 205.344 392.94 205.11C393.345 204.868 393.808 204.74 394.28 204.74C394.909 204.735 395.519 204.963 395.99 205.38C396.212 205.577 396.39 205.819 396.513 206.089C396.635 206.36 396.699 206.653 396.7 206.95Z" fill="#FFB948"/>
<path d="M411.21 215.01H379C378.639 214.954 378.271 214.977 377.919 215.076C377.568 215.176 377.243 215.351 376.966 215.589C376.688 215.826 376.466 216.121 376.313 216.452C376.161 216.784 376.082 217.145 376.082 217.51C376.082 217.875 376.161 218.236 376.313 218.568C376.466 218.899 376.688 219.194 376.966 219.431C377.243 219.669 377.568 219.844 377.919 219.943C378.271 220.043 378.639 220.066 379 220.01H411.17C411.531 220.066 411.899 220.043 412.251 219.943C412.602 219.844 412.927 219.669 413.204 219.431C413.482 219.194 413.704 218.899 413.857 218.568C414.009 218.236 414.088 217.875 414.088 217.51C414.088 217.145 414.009 216.784 413.857 216.452C413.704 216.121 413.482 215.826 413.204 215.589C412.927 215.351 412.602 215.176 412.251 215.076C411.899 214.977 411.531 214.954 411.17 215.01H411.21Z" fill="#6B222D"/>
<path d="M410.26 219.31L405.53 234.18H384.72L381.21 223.18L380 219.31H410.26Z" fill="#5E1E28"/>
<path d="M403.69 223.16L400.19 234.16H384.72L381.21 223.16H403.69Z" fill="#6B222D"/>
<path d="M323.82 337.82C323.82 340.39 285.82 342.47 238.91 342.47C192 342.47 154 340.39 154 337.82C154 335.25 192 333.17 238.91 333.17C285.82 333.17 323.82 335.25 323.82 337.82Z" fill="#869134"/>
<path d="M286.68 238.46L285.98 249.82L283.35 292.77L258.29 298.64L248.11 257.22L245.4 246.22L286.68 238.46Z" fill="#275E92"/>
<path d="M235.77 246.17L232.92 257.8L222.92 298.64L197.86 292.77L195.49 254.22L194.49 238.46L235.77 246.17Z" fill="#275E92"/>
<path d="M283.38 121.77L292.83 123.4C292.83 123.4 322 158.81 303.91 179.95L278.34 145.95V123.42L283.38 121.77Z" fill="#FFC3A1"/>
<path d="M176 104.03C175 109.71 177.49 115.65 181.84 119.81C186.19 123.97 192.22 126.46 198.41 127.59C204.647 128.57 210.988 128.701 217.26 127.98C224.41 127.33 231.57 126.14 238.1 123.42C244.63 120.7 250.5 116.33 253.74 110.49C256.98 104.65 257.28 97.2801 253.55 91.7101C250.99 87.8801 246.77 85.0601 244.69 81.0001C241.03 73.9101 244.86 65.2701 242.36 57.7601C240.19 51.2701 233.07 46.5501 225.65 46.3101C218.23 46.0701 210.87 50.1601 207.42 56.1501C204.11 61.8201 204.09 68.6801 201.03 74.5001C197.97 80.3201 192.41 84.3001 187.29 88.5601C182.17 92.8201 177.16 97.8001 176 104.03Z" fill="#6B222D"/>
<path d="M305.66 237.49C236.13 271 163.38 240.95 163.38 240.95L204.19 134.25L178.1 114.95C184.19 104.73 198.89 99.0799 208.84 96.3099C210.1 95.9599 211.25 95.6599 212.36 95.3899C216.21 94.4699 218.75 94.0799 218.75 94.0799V81.4099L228.35 82.6299L229.69 92.9499C231.44 92.8199 233.16 92.7099 234.83 92.7099C235.83 92.7099 236.76 92.7099 237.7 92.7699C278.16 94.1499 292.84 123.46 292.84 123.46L267.54 133.56L305.66 237.49Z" fill="#FFB948"/>
<path d="M249.3 109.3C250.947 106.773 253.342 104.822 256.15 103.72C259.049 102.556 262.222 102.251 265.29 102.84C268.311 103.4 271.097 104.848 273.29 107C275.367 109.052 276.703 111.736 277.09 114.63C280.09 113.9 283.74 116.63 283.53 119.45C281.53 121.65 278.97 124.12 275.8 123.94C274.132 123.72 272.539 123.11 271.15 122.16C264.05 117.95 256.44 113.41 249.3 109.3Z" fill="#FF8B48"/>
<path d="M231.42 100.95C229.903 102.278 228.066 103.188 226.09 103.59C224.084 104.011 222.006 103.929 220.04 103.35C218.119 102.813 216.373 101.778 214.98 100.35C213.645 98.9694 212.735 97.2336 212.36 95.3499C216.21 94.4299 218.75 94.0399 218.75 94.0399V81.4099L228.35 82.6299L229.22 89.3299L229.69 92.9099C231.44 92.7799 233.15 92.6999 234.83 92.6699C234.951 94.2016 234.707 95.7402 234.12 97.1599C233.516 98.61 232.593 99.9053 231.42 100.95Z" fill="#FFC3A1"/>
<path d="M194.49 238.46L235.77 246.17L232.92 257.8C220.347 257.751 207.805 256.553 195.45 254.22L194.49 238.46Z" fill="#21507D"/>
<path d="M286.68 238.46L285.98 249.82C273.693 253.745 260.991 256.228 248.13 257.22L245.42 246.22L286.68 238.46Z" fill="#21507D"/>
<path d="M305.66 237.49C236.13 271 163.38 240.95 163.38 240.95L183.65 187.95L196.46 154.47L204.19 134.26L208.84 96.2599C210.1 95.9099 211.25 95.6099 212.36 95.3399L209.55 121.03C209.55 121.03 232.38 133.26 245.26 113.45L234.79 92.6599C235.79 92.6599 236.73 92.6599 237.67 92.6599L267.46 133.46L279.36 165.95L283.59 177.48L305.66 237.49Z" fill="#F85757"/>
<path d="M221.48 181.43C209.687 186.993 196.604 189.247 183.63 187.95L196.44 154.47C200.77 154.57 205.03 154.47 209.38 154.68C211.38 154.76 213.55 154.93 214.93 156.23C215.901 157.348 216.481 158.752 216.58 160.23C217.9 167.39 220.18 174.23 221.48 181.43Z" fill="#E73D3D"/>
<path d="M283.66 177.48C279.266 175.079 274.412 173.638 269.42 173.25C264.399 172.84 259.348 173.483 254.59 175.14C254.23 172.46 256.2 169.87 258.71 168.44C261.22 167.01 264.24 166.52 267.17 166.05C271.23 165.39 275.52 164.74 279.43 165.95L283.66 177.48Z" fill="#E73D3D"/>
<path d="M212.36 145.02L253.36 141.25L260.23 177.95C257.245 180.944 253.693 183.313 249.781 184.919C245.87 186.524 241.678 187.334 237.45 187.3C228.592 187.063 219.946 184.53 212.36 179.95V145.02Z" fill="#E73D3D"/>
<path d="M291.57 152.36L298.95 145.02L292.78 155.29L291.57 152.36Z" fill="#FA8359"/>
<path d="M291.63 135.03C291.16 133.26 289.37 131.59 287.41 131.92C289.045 129.773 289.764 127.066 289.41 124.39C289.197 123.062 288.638 121.814 287.79 120.77C286.909 119.682 285.776 118.824 284.49 118.27C283.249 117.688 281.862 117.492 280.509 117.708C279.156 117.924 277.898 118.541 276.9 119.48C277.069 117.689 276.84 115.883 276.23 114.19C275.607 112.461 274.625 110.883 273.35 109.56C272.028 108.189 270.452 107.089 268.71 106.32C265.095 104.739 261.023 104.554 257.28 105.8C255.447 106.4 253.749 107.351 252.28 108.6C250.862 109.794 249.71 111.273 248.9 112.94C248.11 114.562 247.687 116.337 247.66 118.14C247.597 119.456 247.814 120.77 248.297 121.996C248.78 123.221 249.517 124.33 250.46 125.25C247.2 123.05 242.09 123.85 239.46 126.72C238.237 128.159 237.52 129.96 237.419 131.846C237.318 133.731 237.838 135.598 238.9 137.16C240.044 138.751 241.535 140.061 243.26 140.99C245.041 141.949 247.003 142.521 249.02 142.67C250.02 144.77 252.5 145.25 255.02 145.35C264.707 145.705 274.391 144.582 283.74 142.02C285.64 141.49 285.62 140.02 287.17 138.9C289.89 139.54 292.5 138.41 291.63 135.03Z" fill="#576127"/>
<path d="M285.42 137.08C285.255 136.395 284.853 135.79 284.286 135.371C283.72 134.953 283.023 134.747 282.32 134.79C283.508 133.2 284.025 131.207 283.76 129.24C283.608 128.259 283.201 127.335 282.58 126.56C281.933 125.759 281.103 125.125 280.16 124.71C279.222 124.281 278.178 124.142 277.16 124.31C276.171 124.459 275.253 124.909 274.53 125.6C274.649 124.282 274.478 122.955 274.03 121.71C273.57 120.44 272.847 119.282 271.91 118.31C270.936 117.302 269.774 116.493 268.49 115.93C267.176 115.345 265.766 115.006 264.33 114.93C262.889 114.87 261.45 115.07 260.08 115.52C258.741 115.964 257.498 116.66 256.42 117.57C255.38 118.453 254.536 119.543 253.94 120.77C253.356 121.96 253.042 123.264 253.02 124.59C252.96 125.548 253.113 126.508 253.47 127.4C253.83 128.311 254.379 129.136 255.08 129.82C254.17 129.216 253.117 128.866 252.027 128.803C250.938 128.74 249.851 128.969 248.878 129.464C247.906 129.959 247.082 130.704 246.492 131.623C245.902 132.541 245.567 133.599 245.52 134.69C245.454 136.073 245.836 137.441 246.61 138.59C247.455 139.759 248.552 140.722 249.82 141.41C251.133 142.117 252.582 142.536 254.07 142.64C254.81 144.19 256.63 144.55 258.48 144.64C265.61 144.904 272.738 144.082 279.62 142.2C281.03 141.81 281 140.73 282.15 139.9C284.18 140.4 286.07 139.56 285.42 137.08Z" fill="#5F6A2B"/>
<path d="M246.2 141.75L287.2 138.9V145.02L247.27 147.09L246.2 141.75Z" fill="#6B222D"/>
<path d="M285.93 143L283.93 170.34L276.07 171.07L255.47 173L249.77 149.73L248.62 145.02L285.93 143Z" fill="#5E1E28"/>
<path d="M277.74 148.22L276.06 171.07L255.46 173L249.76 149.73L277.74 148.22Z" fill="#6B222D"/>
<path d="M229.15 177.31C221.55 182.37 201.67 186.39 185.23 183.8C181.363 183.24 177.587 182.17 174 180.62C171.709 179.586 169.646 178.107 167.93 176.27C166.278 174.499 165.018 172.4 164.23 170.11C153.67 140.02 178.1 114.95 178.1 114.95L204.19 134.26L195.33 157.35L222.71 157.99L229.15 177.31Z" fill="#FFC3A1"/>
<path d="M220.42 155.95L229.15 181.39L241.36 175.16C241.36 175.16 264.19 170.87 262.71 166.1C262.04 163.53 254.12 165.73 254.12 165.73C254.12 165.73 264.45 161.82 263.38 159.13C262.31 156.44 253.72 160.23 253.72 160.23C253.72 160.23 262.58 155.46 261.5 153.23C260.42 151 250.5 155.23 250.5 155.23C250.5 155.23 257.93 150.46 256.29 148.01C254.65 145.56 243.4 151.8 243.4 151.8C243.4 151.8 248.11 147.28 245.69 146.18C243.27 145.08 234.79 148.99 232.24 153.76L220.42 155.95Z" fill="#FFB948"/>
<path d="M186.6 164.46C186.6 164.46 189.88 158.66 195.35 157.34L196.16 155.34C196.16 155.34 188.89 155.95 186.6 164.46Z" fill="#FA8359"/>
<path d="M253.36 295.71L286.36 282.5L280.28 331.3L289 336.23C289.257 336.376 289.46 336.6 289.58 336.87C289.675 337.135 289.675 337.425 289.58 337.69C289.489 337.972 289.306 338.215 289.06 338.38C288.806 338.551 288.506 338.641 288.2 338.64H266.47C265.536 338.644 264.625 338.349 263.87 337.8C263.153 337.281 262.645 336.521 262.44 335.66L253.36 295.71Z" fill="#15334F"/>
<path d="M227.81 295.71L194.81 282.5L200.88 331.3L192.18 336.23C191.924 336.373 191.723 336.599 191.61 336.87C191.499 337.129 191.481 337.419 191.56 337.69C191.654 337.967 191.837 338.206 192.08 338.37C192.327 338.55 192.625 338.644 192.93 338.64H214.76C215.691 338.642 216.598 338.348 217.35 337.8C218.07 337.281 218.581 336.522 218.79 335.66L227.81 295.71Z" fill="#15334F"/>
<path d="M229.22 89.3299C227.615 90.0838 225.831 90.3714 224.07 90.1599C222.08 89.8481 220.227 88.9498 218.75 87.5799V81.4099L228.35 82.6299L229.22 89.3299Z" fill="#FA8359"/>
<path d="M305.66 156.39C309.36 168.53 306.77 180.75 298.14 185.5L286 175.71C286 175.71 264.73 167.05 267.3 162.71C268.56 160.34 275.78 164.04 275.78 164.04C275.78 164.04 266.61 158.17 268.29 155.78C269.97 153.39 277.47 158.78 277.47 158.78C277.47 158.78 269.95 152.38 271.52 150.44C273.09 148.5 281.81 154.52 281.81 154.52C281.81 154.52 275.67 148.4 277.81 146.33C279.95 144.26 289.52 152.56 289.52 152.56C289.52 152.56 286 147.22 288.62 146.62C291.24 146.02 298.57 151.51 299.93 156.67L305.66 156.39Z" fill="#FFB948"/>
<path d="M201.57 132.31L206.57 114.94L204.2 134.25L201.57 132.31Z" fill="#FF8B48"/>
<path d="M211.83 65.7001C211.471 65.176 210.941 64.794 210.33 64.6201C209.699 64.4309 209.023 64.4591 208.41 64.7001C207.842 64.9533 207.354 65.3581 207 65.8701C206.643 66.3671 206.441 66.9586 206.42 67.5701C206.425 68.1821 206.554 68.7867 206.8 69.3472C207.046 69.9076 207.403 70.4122 207.85 70.8301C208.778 71.7063 209.873 72.3865 211.07 72.8301C211.07 72.8301 215.9 86.4401 224.07 87.4401C231.82 88.4401 238.07 79.6901 238.98 68.0501C239.164 66.0745 238.686 64.0938 237.62 62.4201C236.722 60.9661 235.358 59.8593 233.75 59.2801C233.75 59.2801 230.13 57.5401 229.92 54.6001C229.92 54.6001 227.41 60.1101 222.72 60.4701C217.45 60.6501 213.43 62.0301 211.83 65.7001Z" fill="#FFC3A1"/>
<path d="M38.39 154.02C36.05 163.19 53.89 165.5 53.89 157.75C53.89 150 40.49 145.77 38.39 154.02Z" fill="#FFD18D"/>
<path d="M95.58 147.88C95.58 153.88 107.07 153.48 107.07 147.88C107.07 142.28 95.58 142.76 95.58 147.88Z" fill="#FF8966"/>
<path d="M0.0499998 117.48C-1.05 122.35 16.75 123.92 19.69 117.03C22.63 110.14 3.53 102.1 0.0499998 117.48Z" fill="#FFE8D4"/>
<path d="M64 114.28C59 110.71 53 119.8 57.73 123.16C62.46 126.52 69 117.85 64 114.28Z" fill="#9DBEAA"/>
<path d="M112 347.63C115 344.91 112.62 326.06 108.92 326.58C105.22 327.1 106.21 336.3 106.21 336.3C106.21 336.3 101.56 329.1 99.21 330.53C96.86 331.96 101.84 339.46 101.84 339.46C101.84 339.46 91.84 333.62 90.08 337.51C88.32 341.4 108.54 350.81 112 347.63Z" fill="#F85757"/>
</g>
<defs>
<clipPath id="clip0_523_2953">
<rect width="476.22" height="380.21" fill="white"/>
</clipPath>
</defs>
</svg>
