<svg width="85" height="188" viewBox="0 0 85 188" fill="none" xmlns="http://www.w3.org/2000/svg">
<path d="M34.0639 -8.03092C33.6934 -7.50481 33.1154 -6.77493 32.2817 -5.76717L32.2485 -5.7227C32.2818 -5.60415 42.815 32.5387 34.5196 35.436C26.9132 38.0925 26.2723 10.1272 29.3586 -1.59535C27.6573 1.01298 26.1704 3.75502 24.9126 6.60379C22.7748 11.4907 21.3113 17.7929 20.348 24.8249C21.893 27.3554 31.3407 43.2721 26.6094 46.5436C22.771 49.2001 20.259 38.7409 19.5699 31.8274C19.0179 38.074 18.7771 44.68 18.7511 51.2341C23.8603 52.4901 39.2953 56.9212 39.5843 64.8388C39.9103 73.69 26.6428 71.078 18.7548 54.6649C18.7993 61.1857 19.0365 67.5842 19.3662 73.4566C23.0416 76.7689 38.1505 91.022 35.7126 99.2544C33.2488 107.594 23.7714 98.0429 19.7811 79.8255C20.5221 90.255 21.4669 98.1763 21.8819 100.677C22.019 101.5 22.1746 102.559 22.3376 103.808C22.3969 104.264 22.4599 104.745 22.5229 105.253C22.5229 105.253 46.0051 136.897 39.2805 144.181C34.5122 149.346 27.3764 128.209 23.6269 115.464C24.9237 128.994 26.0648 146.638 24.9755 152.08H24.8903C25.7202 164.281 26.2908 186.462 19.5699 187.581C10.2741 189.13 19.5699 164.34 19.5699 164.34C19.5699 164.34 8.22525 168.871 7.17303 164.34C5.41686 156.763 21.3076 146.089 23.8714 144.422C23.8381 137.686 23.2268 128.139 22.4635 119.465C21.6077 138.061 16.9616 143.588 15.1499 144.2C12.9269 144.941 8.29566 140.409 9.87769 126.045C11.1077 114.878 17.9435 107.657 20.9371 104.99C20.7296 103.404 20.5332 102.026 20.3554 100.955C19.9553 98.5542 19.0772 91.1998 18.351 81.4186C16.5319 96.7091 12.2341 109.206 8.34757 101.47C4.56848 93.9156 14.4349 79.4661 17.899 74.7756C17.4989 67.9547 17.2136 60.3743 17.2136 52.6753C14.3311 60.2335 1.686 74.4458 0.107679 66.3134C-1.44471 58.3143 14.2533 49.9929 17.2433 48.4887C17.3322 41.8975 17.6507 35.3137 18.2954 29.1338C14.7868 35.3656 4.07935 48.1293 2.80854 41.238C1.35989 33.3723 19.3069 21.2978 19.3069 21.2978L19.3328 21.3274C20.2998 15.4735 21.6521 10.2124 23.4972 6.00729C24.694 3.28698 26.0973 0.662351 27.695 -1.84358C21.0594 2.65798 10.9077 6.67789 11.3153 1.96515C11.7599 -3.13292 27.3763 -7.25287 32.3521 -8.44217C32.5226 -8.6867 32.6374 -8.78673 32.7226 -8.78673C34.5047 -10.9801 36.3831 -13.0512 38.2801 -15H40.455C38.2022 -12.7923 36.0688 -10.4659 34.0639 -8.03092Z" fill="#30AD4C"/>
<path d="M78.3782 -9.21664C72.7392 -2.61435 66.9113 -24.2737 64.3326 -35.611C64.2437 -27.8305 64.1473 -17.4269 64.088 -5.37086C67.5707 -1.79925 78.3559 10.0938 76.8517 18.9005C75.3919 27.4516 67.0743 9.63805 64.0547 2.78012C64.0362 9.0786 64.0251 15.7216 64.0362 22.5981C68.3933 26.3883 78.9265 36.6771 73.9025 43.6387C69.8271 49.2851 66.1221 38.0813 64.0473 29.5598C64.0696 37.3884 64.114 45.4542 64.1918 53.5866C69.4603 57.8029 84.1135 70.8519 78.7635 81.689C74.0174 91.322 67.4337 70.9927 64.2511 59.4591C64.3475 68.1287 64.4808 76.8317 64.6623 85.3643C67.5522 90.203 78.0892 108.732 72.3205 112.726C69.2046 114.882 66.7631 110.34 65.1551 104.449C65.4034 112.411 65.6997 120.062 66.0591 127.227C69.9049 129.772 85.7808 140.839 83.9357 148.797C82.7834 153.766 70.331 148.797 70.331 148.797C70.331 148.797 80.5345 176.003 70.331 174.303C63.0988 173.095 63.5583 149.672 64.4364 136.141C64.2857 133.651 64.1436 131.089 64.0102 128.453C62.5023 134.118 59.9347 138.223 57.0486 134.752C51.9542 128.657 61.3834 114.189 63.2767 111.41C63.0099 103.96 62.7913 96.1866 62.6135 88.2431C58.701 95.868 43.8107 114.067 42.1027 104.804C40.4614 95.9124 58.0341 82.8375 62.4393 79.7142C62.2911 71.8115 62.1837 63.805 62.1022 55.8504C59.2753 61.8747 49.6312 81.1666 42.4324 80.1588C34.0851 78.988 48.8495 61.1448 62.0911 54.4832C62.0133 46.6842 61.9688 38.9408 61.9428 31.4049C61.9169 31.6012 61.891 31.7976 61.8576 32.0088C61.0648 37.1217 52.1691 56.4247 48.2048 50.0336C44.2405 43.6424 61.8576 25.6473 61.8576 25.6473C61.8858 25.6982 61.9094 25.7515 61.9281 25.8066C61.9281 18.5263 61.9281 11.4757 61.9281 4.79564C59.1271 11.8796 49.331 27.5887 46.1929 22.3202C43.2289 17.3148 57.1634 2.45408 61.954 -2.41427C61.9947 -12.0806 62.0614 -20.7836 62.1318 -28.0454C58.7973 -20.7651 48.7308 -0.7248 45.6483 -7.98658C42.3657 -15.7263 58.4602 -30.6055 62.1911 -33.9215C62.1911 -34.6366 62.1911 -35.3257 62.2134 -36H70.2272C76.1552 -27.2414 83.0391 -14.6889 78.3782 -9.21664Z" fill="#30AD4C"/>
</svg>
