<svg width="205" height="173" viewBox="0 0 205 173" fill="none" xmlns="http://www.w3.org/2000/svg">
<path d="M126.037 79.0634C135.41 64.4219 137.159 46.7403 136.976 34.4854C136.777 21.1824 134.321 11.2226 134.295 11.1247L134.974 10.8848C134.999 10.9858 137.474 21.0183 137.676 34.4097C137.863 46.7845 136.098 64.646 126.609 79.4706L126.037 79.0634Z" fill="#3C8F7C"/>
<path d="M131.989 8.69072C132.22 11.6992 133.568 14.2247 135.462 15.7747C137.198 13.4952 138.028 10.6531 137.792 7.79735C137.561 4.78886 136.213 2.2634 134.319 0.713379C132.584 2.99357 131.754 5.83514 131.989 8.69072Z" fill="#30AD4C"/>
<path d="M143.208 18.7215C145.376 15.1038 146.02 11.5042 144.648 10.6815C143.275 9.85886 140.404 12.1247 138.237 15.7424C136.069 19.3602 135.425 22.9599 136.797 23.7825C138.17 24.6052 141.041 22.3393 143.208 18.7215Z" fill="#30AD4C"/>
<path d="M141.911 23.8151C139.53 25.3679 137.821 27.7609 137.125 30.5171C139.474 31.1832 142.223 30.7823 144.701 29.1755C147.082 27.6239 148.791 25.232 149.487 22.4766C147.132 21.8074 144.389 22.202 141.911 23.8151Z" fill="#30AD4C"/>
<path d="M140.804 35.2054C138.85 36.4682 137.648 38.678 137.307 41.0772C138.314 41.5233 139.417 41.7097 140.515 41.6193C141.613 41.5288 142.671 41.1644 143.592 40.5595C145.546 39.2967 146.749 37.087 147.087 34.6909C146.08 34.2434 144.978 34.056 143.88 34.146C142.782 34.2359 141.725 34.6002 140.804 35.2054Z" fill="#30AD4C"/>
<path d="M132.727 21.7126C131.698 21.1545 130.559 20.83 129.391 20.7623C128.223 20.6947 127.054 20.8855 125.968 21.3211C126.248 22.4811 126.769 23.5691 127.498 24.5139C128.227 25.4588 129.147 26.2393 130.198 26.8046C131.227 27.3628 132.366 27.6873 133.535 27.755C134.704 27.8226 135.873 27.6318 136.96 27.1961C136.679 26.0359 136.157 24.9479 135.428 24.003C134.698 23.0582 133.778 22.2777 132.727 21.7126Z" fill="#30AD4C"/>
<path d="M132.974 29.5764C131.945 29.0182 130.805 28.6938 129.637 28.6261C128.468 28.5584 127.299 28.7493 126.212 29.185C126.492 30.3452 127.014 31.4335 127.743 32.3788C128.472 33.3241 129.391 34.1053 130.442 34.6716C131.471 35.2298 132.611 35.5543 133.779 35.6219C134.948 35.6896 136.117 35.4988 137.204 35.0631C136.925 33.9024 136.403 32.8138 135.674 31.8684C134.945 30.923 134.025 30.1419 132.974 29.5764Z" fill="#30AD4C"/>
<path d="M139.391 47.7155C138.821 47.8573 138.287 48.1149 137.821 48.4723C137.355 48.8296 136.967 49.2791 136.683 49.7928C137.108 50.1469 137.611 50.3962 138.151 50.5207C138.69 50.6451 139.251 50.6413 139.789 50.5094C140.359 50.3671 140.893 50.1093 141.359 49.752C141.825 49.3946 142.212 48.9454 142.498 48.4321C142.072 48.0773 141.57 47.8276 141.03 47.7031C140.49 47.5786 139.929 47.5829 139.391 47.7155Z" fill="#30AD4C"/>
<path d="M129.901 89.4085C151.349 84.2817 167.708 68.4185 177.655 56.012C188.452 42.5449 194.235 30.1258 194.292 30.0059L195.166 30.4541C195.109 30.5773 189.285 43.0816 178.416 56.6561C168.374 69.1856 151.848 85.213 130.135 90.4029L129.901 89.4085Z" fill="#3C8F7C"/>
<path d="M194.001 25.2453C191.838 28.3193 190.981 32.1255 191.618 35.8302C194.986 35.3977 198.276 33.4657 200.536 30.23C202.702 27.1568 203.559 23.3498 202.919 19.645C199.551 20.0807 196.262 22.0127 194.001 25.2453Z" fill="#30AD4C"/>
<path d="M194.582 38.5798C192.821 39.0351 191.175 39.8507 189.746 40.9749C188.317 42.0992 187.136 43.5076 186.279 45.1114C187.809 46.087 189.527 46.7315 191.321 47.0034C193.115 47.2752 194.946 47.1684 196.697 46.6898C198.458 46.234 200.104 45.4179 201.533 44.2931C202.963 43.1683 204.143 41.7593 204.999 40.1551C203.469 39.18 201.752 38.5361 199.957 38.2648C198.163 37.9935 196.332 38.1008 194.582 38.5798Z" fill="#30AD4C"/>
<path d="M191.393 50.3612C189.642 49.9254 187.818 49.8644 186.041 50.1821C184.265 50.4998 182.575 51.1891 181.083 52.2049C182.026 53.7856 183.278 55.1596 184.765 56.2446C186.252 57.3295 187.943 58.103 189.736 58.5186C191.487 58.9548 193.311 59.016 195.088 58.6983C196.865 58.3806 198.554 57.6911 200.046 56.6749C199.104 55.0939 197.851 53.7197 196.364 52.6348C194.877 51.5498 193.187 50.7765 191.393 50.3612Z" fill="#30AD4C"/>
<path d="M182.851 61.0756C181.1 60.6394 179.276 60.5782 177.499 60.8959C175.722 61.2136 174.033 61.9031 172.541 62.9192C173.483 64.5005 174.735 65.875 176.222 66.96C177.709 68.045 179.4 68.8182 181.194 69.2329C182.945 69.6687 184.769 69.7298 186.546 69.4121C188.323 69.0944 190.012 68.4051 191.504 67.3893C190.561 65.8089 189.308 64.4351 187.821 63.3503C186.335 62.2654 184.644 61.4917 182.851 61.0756Z" fill="#30AD4C"/>
<path d="M185.405 43.2646C185.61 39.8131 184.52 36.4091 182.349 33.7183C180.07 35.6597 178.529 38.7692 178.34 42.4059C178.135 45.8575 179.224 49.2614 181.396 51.9523C183.672 50.0108 185.212 46.9108 185.405 43.2646Z" fill="#30AD4C"/>
<path d="M176.494 54.3483C176.749 50.8969 175.712 47.4739 173.583 44.7451C171.275 46.6392 169.688 49.7171 169.441 53.357C169.186 56.8084 170.223 60.2314 172.352 62.9602C174.66 61.0597 176.248 57.9881 176.494 54.3483Z" fill="#30AD4C"/>
<path d="M169.13 71.645C168.487 71.2168 167.758 70.9352 166.994 70.8201C166.23 70.705 165.45 70.7592 164.71 70.9789C164.838 71.7597 165.126 72.5054 165.557 73.1689C165.988 73.8325 166.552 74.3992 167.213 74.8334C167.856 75.2614 168.585 75.5429 169.349 75.658C170.113 75.7731 170.892 75.719 171.633 75.4995C171.505 74.7187 171.217 73.9729 170.786 73.3094C170.355 72.6459 169.791 72.0791 169.13 71.645Z" fill="#30AD4C"/>
<path d="M73.1282 119.705L72.2033 119.642C73.5386 95.11 64.5321 72.0271 56.7347 56.9847C48.2806 40.6574 39.3941 30.0093 39.3057 29.902L39.9844 29.2012C40.0728 29.3085 49.0225 40.0292 57.527 56.4511C65.3971 71.623 74.4794 94.9111 73.1282 119.705Z" fill="#3C8F7C"/>
<path d="M35.2872 28.497C37.4054 32.0642 40.4455 34.2772 43.5329 34.8833C44.0523 30.908 43.2242 26.8733 41.181 23.4239C39.0628 19.8598 36.0227 17.6437 32.9353 17.0376C32.4159 21.0129 33.244 25.0476 35.2872 28.497Z" fill="#30AD4C"/>
<path d="M53.9721 33.2473C54.129 27.2919 52.6075 22.4206 50.5736 22.367C48.5396 22.3134 46.7635 27.0978 46.6065 33.0532C46.4495 39.0086 47.9711 43.8799 50.0051 43.9335C52.039 43.9871 53.8151 39.2028 53.9721 33.2473Z" fill="#30AD4C"/>
<path d="M55.6485 40.436C53.9626 44.0442 53.5529 48.1184 54.4868 51.9901C57.5016 51.2166 60.3049 48.8332 62.0475 45.1681C63.7334 41.5587 64.143 37.4836 63.2092 33.6108C60.1944 34.3874 57.3911 36.7614 55.6485 40.436Z" fill="#30AD4C"/>
<path d="M61.8585 59.2795C61.0475 60.7403 60.7601 62.4345 61.0441 64.0811C62.3289 63.8601 63.5696 62.9635 64.4061 61.4861C65.2157 60.0248 65.503 58.3311 65.2206 56.6846C63.9357 56.9056 62.692 57.8021 61.8585 59.2795Z" fill="#30AD4C"/>
<path d="M64.5388 66.0446C63.7265 67.505 63.438 69.1993 63.7212 70.8462C65.006 70.6252 66.2467 69.7287 67.0833 68.2513C67.8937 66.7902 68.1821 65.0966 67.9009 63.4497C66.6129 63.6675 65.3722 64.5672 64.5388 66.0446Z" fill="#30AD4C"/>
<path d="M44.1644 44.1012C42.6409 44.1349 41.1467 44.5262 39.8021 45.2435C38.4576 45.9607 37.3004 46.9838 36.4238 48.2303C38.4442 50.6611 41.3454 52.1764 44.5085 52.1291C46.0324 52.0955 47.527 51.7039 48.8717 50.9861C50.2163 50.2682 51.3733 49.2442 52.2492 47.9967C50.2288 45.5628 47.3276 44.0538 44.1644 44.1012Z" fill="#30AD4C"/>
<path d="M49.2973 53.6637C47.7735 53.6978 46.279 54.0895 44.9345 54.8073C43.5899 55.5251 42.4329 56.5489 41.5566 57.796C43.5802 60.2236 46.4813 61.7389 49.6445 61.6915C51.1683 61.6574 52.6627 61.2657 54.0073 60.5479C55.3518 59.8301 56.5089 58.8063 57.3851 57.5592C55.3647 55.1316 52.4604 53.6163 49.2973 53.6637Z" fill="#30AD4C"/>
<path d="M57.7961 66.6948C56.8018 66.7137 55.8261 66.9672 54.9484 67.4346C54.0707 67.902 53.3157 68.5701 52.7451 69.3845C53.3766 70.1733 54.1775 70.8099 55.0885 71.2471C55.9995 71.6843 56.9971 71.9108 58.0076 71.91C59.0016 71.8914 59.9771 71.6385 60.8548 71.1716C61.7325 70.7048 62.4876 70.0373 63.0586 69.2235C62.4265 68.4351 61.6255 67.7986 60.7147 67.361C59.8039 66.9234 58.8066 66.6957 57.7961 66.6948Z" fill="#30AD4C"/>
<path d="M153.107 159.929C153.107 155.848 128.446 160.665 126.397 155.099C124.348 149.534 147.516 149.215 147.516 141.689C147.516 134.163 135.707 139.441 128.784 139.441C121.861 139.441 142.456 136.218 142.456 133.557C142.456 130.896 135.227 132.294 135.227 129.453C135.227 126.612 173.175 124.49 168.734 117.567C164.292 110.645 143.892 119.585 138.292 115.989C132.692 112.393 168.216 108.501 169.097 103.175C169.978 97.8498 142.917 107.74 139.088 103.908C135.258 100.075 181.873 86.3083 179.918 76.1874C177.964 66.0666 144.587 89.1495 136.24 86.6619C127.893 84.1743 178.321 48.6501 166.603 34.8105C154.885 20.9708 132.509 80.626 124.875 78.4951C117.242 76.3642 134.438 40.799 126.64 34.6148C118.843 28.4305 96.4543 84.6889 95.04 96.2398C93.6258 107.791 90.7878 71.389 78.536 67.1304C66.2842 62.8718 78.1793 89.683 76.0484 97.8498C73.9175 106.017 63.9766 76.9009 50.5694 79.0318C37.1622 81.1626 74.8077 107.794 71.089 115.607C67.3702 123.42 38.2829 89.5409 29.1628 98.6485C20.0426 107.756 64.1849 133.036 61.7731 139.953C59.3612 146.869 32.891 135.015 25.2672 142.636C17.6434 150.257 53.7042 155.106 58.4836 155.106C63.2631 155.106 81.5287 161.104 63.6925 159.936C45.8562 158.768 153.107 164.011 153.107 159.929Z" fill="#30AD4C"/>
<path d="M82.8298 164.646C82.8298 164.646 53.1332 166.224 44.4866 160.794C35.8399 155.365 42.6651 151.112 42.6651 151.112C42.6651 151.112 15.2004 150.516 15.273 144.009C15.3456 137.503 21.9971 137.879 21.9971 137.879C21.9971 137.879 8.13537 128.459 10.7208 122.587C14.6922 113.565 37.27 129.273 37.27 129.273C37.27 129.273 29.8703 120.484 35.8494 118.429C52.2493 112.804 82.8298 164.646 82.8298 164.646Z" fill="#30AD4C" fill-opacity="0.7"/>
<path d="M10.7042 122.59C8.11876 128.462 21.9805 137.882 21.9805 137.882C21.9805 137.882 11.9764 137.75 13.5991 144.076C15.2217 150.402 40.3692 152.508 40.3692 152.508C40.3692 152.508 31.59 154.225 40.2335 159.668C48.8769 165.11 82.8289 164.646 82.8289 164.646L10.7042 122.59Z" fill="#74E68D"/>
<path d="M18.6255 153.985H167.354C172.294 153.985 177.032 155.947 180.525 159.44C184.018 162.933 185.98 167.671 185.98 172.61V174.504H0V172.61C0 167.671 1.96232 162.933 5.45527 159.44C8.94822 155.947 13.6857 153.985 18.6255 153.985Z" fill="#13375B"/>
</svg>
